<?xml version="1.0" encoding="UTF-8"?>
<svg width="141px" height="50px" viewBox="0 0 141 50" version="1.1" xmlns="http://www.w3.org/2000/svg" xmlns:xlink="http://www.w3.org/1999/xlink">
    <title>Desktop_close_EN Copy</title>
    <defs>
        <path d="M29.1017877,0 L146,0 L146,0 L146,45 L13.420536,45 C9.00225805,45 5.42053605,41.418278 5.42053605,37 C5.42053605,35.6713234 5.75146778,34.3635681 6.38345002,33.1948167 L22.0647017,4.19481666 C23.462161,1.61043611 26.1637755,2.31606092e-15 29.1017877,0 Z" id="path-1"></path>
        <filter x="-2.5%" y="-20.0%" width="108.6%" height="140.0%" filterUnits="objectBoundingBox" id="filter-2">
            <feOffset dx="0" dy="0" in="SourceAlpha" result="shadowOffsetOuter1"></feOffset>
            <feGaussianBlur stdDeviation="3" in="shadowOffsetOuter1" result="shadowBlurOuter1"></feGaussianBlur>
            <feComposite in="shadowBlurOuter1" in2="SourceAlpha" operator="out" result="shadowBlurOuter1"></feComposite>
            <feColorMatrix values="0 0 0 0 0   0 0 0 0 0   0 0 0 0 0  0 0 0 0.5 0" type="matrix" in="shadowBlurOuter1"></feColorMatrix>
        </filter>
        <path d="M12.306459,8.87727408 L17.4589345,3.71354907 L17.4589346,3.71354892 C18.267214,2.76971337 18.1573245,1.34933912 17.21349,0.54106428 C16.3711447,-0.180301353 15.1287962,-0.180301353 14.2864452,0.54106565 L9.12271982,5.69354071 L3.9589944,0.54106565 L3.95899449,0.541065723 C3.01515886,-0.267213615 1.5947845,-0.157325271 0.786509596,0.786510285 C0.0651427806,1.62885558 0.0651439056,2.87120394 0.78651057,3.71355487 L5.93898604,8.87727987 L0.78651057,14.0410049 L0.786510335,14.0410051 C-0.157325296,14.8492844 -0.267213648,16.269653 0.541065754,17.2134897 C1.34934515,18.1573253 2.76971389,18.2672136 3.71355065,17.4589343 C3.80156337,17.3835621 3.88362171,17.3015037 3.9589941,17.2134909 L9.12271952,12.0610158 L14.2864449,17.2134909 L14.2864447,17.2134907 C15.2302803,18.02177 16.6506547,17.9118816 17.4589296,16.9680461 C18.1802964,16.1257008 18.1802953,14.8833524 17.4589289,14.0410015 L12.306459,8.87727408 Z" id="path-3"></path>
    </defs>
    <g id="Desktop_close_EN-Copy" stroke="none" stroke-width="1" fill="none" fill-rule="evenodd">
        <g id="Group" transform="translate(-4.000000, 3.000000)">
            <g id="Rectangle">
                <use fill="black" fill-opacity="1" filter="url(#filter-2)" xlink:href="#path-1"></use>
                <path stroke="#FFFFFF" stroke-width="1" d="M145.5,0.5 L29.1017877,0.5 C27.7245945,0.5 26.402807,0.877445963 25.261553,1.55774902 C24.120299,2.23805208 23.1595786,3.22121224 22.5045195,4.43264062 L6.82326789,33.4326406 C6.23078455,34.5283451 5.92053605,35.7543657 5.92053605,37 C5.92053605,39.0710678 6.76000214,40.9460678 8.11723519,42.3033009 C9.47446823,43.6605339 11.3494682,44.5 13.420536,44.5 L145.5,44.5 L145.5,0.5 Z" stroke-linejoin="square" fill="#172A34" fill-rule="evenodd"></path>
            </g>
        </g>
        <path d="M72.047471,30.15625 C73.3808043,30.15625 74.4550231,29.8046875 75.2701273,29.1015625 C76.0852314,28.3984375 76.5370543,27.4348958 76.625596,26.2109375 L76.625596,26.2109375 L74.281846,26.2109375 C74.2297627,26.9036458 74.0253356,27.4153646 73.6685648,27.7460938 C73.3117939,28.0768229 72.7714293,28.2421875 72.047471,28.2421875 C71.2453877,28.2421875 70.6581481,27.9583333 70.2857523,27.390625 C69.9133564,26.8229167 69.7271585,25.9244792 69.7271585,24.6953125 L69.7271585,24.6953125 L69.7271585,23.8359375 C69.7375752,22.6588542 69.9367939,21.7903646 70.3248148,21.2304688 C70.7128356,20.6705729 71.297471,20.390625 72.078721,20.390625 C72.797471,20.390625 73.3326273,20.5559896 73.6841898,20.8867188 C74.0357523,21.2174479 74.2401793,21.75 74.297471,22.484375 L74.297471,22.484375 L76.641221,22.484375 C76.516221,21.2135417 76.0526793,20.2265625 75.250596,19.5234375 C74.4485127,18.8203125 73.391221,18.46875 72.078721,18.46875 C71.1308043,18.46875 70.2987731,18.6914062 69.5826273,19.1367188 C68.8664814,19.5820312 68.3157002,20.2213542 67.9302835,21.0546875 C67.5448668,21.8880208 67.3521585,22.8515625 67.3521585,23.9453125 L67.3521585,23.9453125 L67.3521585,24.640625 C67.3521585,26.3541667 67.7701273,27.7018229 68.6060648,28.6835938 C69.4420023,29.6653646 70.5891377,30.15625 72.047471,30.15625 Z M86.9097326,30 L86.9097326,28.1171875 L81.9331701,28.1171875 L81.9331701,18.625 L79.5894201,18.625 L79.5894201,30 L86.9097326,30 Z M93.6938692,30.15625 C94.6469942,30.15625 95.4920463,29.9270833 96.2290255,29.46875 C96.9660046,29.0104167 97.5324109,28.359375 97.9282442,27.515625 C98.3240775,26.671875 98.5219942,25.6901042 98.5219942,24.5703125 L98.5219942,24.5703125 L98.5219942,24.0625 C98.5219942,22.9479167 98.3201713,21.9648438 97.9165255,21.1132812 C97.5128796,20.2617188 96.9425671,19.6080729 96.205588,19.1523438 C95.4686088,18.6966146 94.6261609,18.46875 93.6782442,18.46875 C92.7303275,18.46875 91.8878796,18.6966146 91.1509005,19.1523438 C90.4139213,19.6080729 89.8436088,20.2617188 89.439963,21.1132812 C89.0363171,21.9648438 88.8344942,22.9505208 88.8344942,24.0703125 L88.8344942,24.0703125 L88.8344942,24.6328125 C88.8397025,25.7265625 89.0454317,26.6940104 89.4516817,27.5351562 C89.8579317,28.3763021 90.4308484,29.0234375 91.1704317,29.4765625 C91.910015,29.9296875 92.7511609,30.15625 93.6938692,30.15625 Z M93.6938692,28.234375 C92.8917859,28.234375 92.2772025,27.9140625 91.8501192,27.2734375 C91.4230359,26.6328125 91.2094942,25.7317708 91.2094942,24.5703125 L91.2094942,24.5703125 L91.2094942,24.015625 C91.2147025,22.8333333 91.4308484,21.9361979 91.8579317,21.3242188 C92.285015,20.7122396 92.8917859,20.40625 93.6782442,20.40625 C94.4699109,20.40625 95.0792859,20.7161458 95.5063692,21.3359375 C95.9334525,21.9557292 96.1469942,22.8619792 96.1469942,24.0546875 L96.1469942,24.0546875 L96.1469942,24.609375 C96.1417859,25.7916667 95.9282442,26.6914062 95.5063692,27.3085938 C95.0844942,27.9257812 94.4803275,28.234375 93.6938692,28.234375 Z M105.774881,30.15625 C107.035297,30.15625 108.037902,29.8763021 108.782693,29.3164062 C109.527485,28.7565104 109.899881,27.984375 109.899881,27 C109.899881,26.1145833 109.595193,25.375 108.985818,24.78125 C108.376443,24.1875 107.405089,23.6901042 106.071756,23.2890625 C105.347797,23.0703125 104.79962,22.8359375 104.427225,22.5859375 C104.054829,22.3359375 103.868631,22.0260417 103.868631,21.65625 C103.868631,21.2604167 104.027485,20.9414062 104.345193,20.6992188 C104.662902,20.4570312 105.108214,20.3359375 105.681131,20.3359375 C106.274881,20.3359375 106.735818,20.4804688 107.063943,20.7695312 C107.392068,21.0585938 107.556131,21.4635417 107.556131,21.984375 L107.556131,21.984375 L109.899881,21.984375 C109.899881,21.3020833 109.7241,20.6927083 109.372537,20.15625 C109.020975,19.6197917 108.527485,19.2044271 107.892068,18.9101562 C107.256652,18.6158854 106.532693,18.46875 105.720193,18.46875 C104.912902,18.46875 104.185037,18.6041667 103.5366,18.875 C102.888162,19.1458333 102.390766,19.5221354 102.044412,20.0039062 C101.698058,20.4856771 101.524881,21.0338542 101.524881,21.6484375 C101.524881,22.8307292 102.170714,23.7708333 103.462381,24.46875 C103.936339,24.7239583 104.579568,24.9830729 105.392068,25.2460938 C106.204568,25.5091146 106.767068,25.7591146 107.079568,25.9960938 C107.392068,26.2330729 107.548318,26.5729167 107.548318,27.015625 C107.548318,27.421875 107.392068,27.7382812 107.079568,27.9648438 C106.767068,28.1914062 106.332172,28.3046875 105.774881,28.3046875 C104.274881,28.3046875 103.524881,27.6770833 103.524881,26.421875 L103.524881,26.421875 L101.173318,26.421875 C101.173318,27.15625 101.36212,27.8020833 101.739725,28.359375 C102.117329,28.9166667 102.665506,29.3554688 103.384256,29.6757812 C104.103006,29.9960938 104.899881,30.15625 105.774881,30.15625 Z M120.53558,30 L120.53558,28.1171875 L115.25433,28.1171875 L115.25433,25.0703125 L119.75433,25.0703125 L119.75433,23.234375 L115.25433,23.234375 L115.25433,20.5234375 L120.519955,20.5234375 L120.519955,18.625 L112.91058,18.625 L112.91058,30 L120.53558,30 Z" id="CLOSE" fill="#FFFFFF" fill-rule="nonzero"></path>
        <g id="Icon/Close" transform="translate(32.000000, 16.000000)">
            <rect id="24pt-Bounding-Box" x="-4" y="-4" width="26" height="26"></rect>
            <mask id="mask-4" fill="white">
                <use xlink:href="#path-3"></use>
            </mask>
            <use id="Fill" fill="#FFFFFF" fill-rule="evenodd" xlink:href="#path-3"></use>
        </g>
    </g>
</svg>